<?xml version="1.0" encoding="UTF-8"?>
<svg xmlns="http://www.w3.org/2000/svg" width="297.0mm" height="210.0mm" viewBox="0 0 297.0 210.0">
<style>
  .small { font: 3.5px sans-serif; fill: #111; }
  .label { font: 4.2px sans-serif; fill: #111; }
  .thin { stroke: #111; stroke-width: 0.25; fill: none; }
  .hair { stroke: #111; stroke-width: 0.18; fill: none; }
</style>
<rect x="7.13" y="55.00" width="282.74" height="100.00" class="thin"/>
<text x="7.13" y="53.00" class="label">Jan</text>
<line x1="7.13" y1="55.00" x2="7.13" y2="155.00" class="hair"/>
<text x="7.73" y="59.20" class="small">1</text>
<line x1="14.87" y1="55.00" x2="14.87" y2="155.00" class="hair"/>
<text x="15.47" y="59.20" class="small">11</text>
<line x1="22.62" y1="55.00" x2="22.62" y2="155.00" class="hair"/>
<text x="23.22" y="59.20" class="small">21</text>
<text x="31.14" y="53.00" class="label">Feb</text>
<line x1="31.14" y1="55.00" x2="31.14" y2="155.00" class="hair"/>
<text x="31.74" y="59.20" class="small">1</text>
<line x1="38.89" y1="55.00" x2="38.89" y2="155.00" class="hair"/>
<text x="39.49" y="59.20" class="small">11</text>
<line x1="46.63" y1="55.00" x2="46.63" y2="155.00" class="hair"/>
<text x="47.23" y="59.20" class="small">21</text>
<text x="52.83" y="53.00" class="label">Mar</text>
<line x1="52.83" y1="55.00" x2="52.83" y2="155.00" class="hair"/>
<text x="53.43" y="59.20" class="small">1</text>
<line x1="60.58" y1="55.00" x2="60.58" y2="155.00" class="hair"/>
<text x="61.18" y="59.20" class="small">11</text>
<line x1="68.32" y1="55.00" x2="68.32" y2="155.00" class="hair"/>
<text x="68.92" y="59.20" class="small">21</text>
<text x="76.85" y="53.00" class="label">Apr</text>
<line x1="76.85" y1="55.00" x2="76.85" y2="155.00" class="hair"/>
<text x="77.45" y="59.20" class="small">1</text>
<line x1="84.59" y1="55.00" x2="84.59" y2="155.00" class="hair"/>
<text x="85.19" y="59.20" class="small">11</text>
<line x1="92.34" y1="55.00" x2="92.34" y2="155.00" class="hair"/>
<text x="92.94" y="59.20" class="small">21</text>
<text x="100.09" y="53.00" class="label">May</text>
<line x1="100.09" y1="55.00" x2="100.09" y2="155.00" class="hair"/>
<text x="100.69" y="59.20" class="small">1</text>
<line x1="107.83" y1="55.00" x2="107.83" y2="155.00" class="hair"/>
<text x="108.43" y="59.20" class="small">11</text>
<line x1="115.58" y1="55.00" x2="115.58" y2="155.00" class="hair"/>
<text x="116.18" y="59.20" class="small">21</text>
<text x="124.10" y="53.00" class="label">Jun</text>
<line x1="124.10" y1="55.00" x2="124.10" y2="155.00" class="hair"/>
<text x="124.70" y="59.20" class="small">1</text>
<line x1="131.85" y1="55.00" x2="131.85" y2="155.00" class="hair"/>
<text x="132.45" y="59.20" class="small">11</text>
<line x1="139.59" y1="55.00" x2="139.59" y2="155.00" class="hair"/>
<text x="140.19" y="59.20" class="small">21</text>
<text x="147.34" y="53.00" class="label">Jul</text>
<line x1="147.34" y1="55.00" x2="147.34" y2="155.00" class="hair"/>
<text x="147.94" y="59.20" class="small">1</text>
<line x1="155.08" y1="55.00" x2="155.08" y2="155.00" class="hair"/>
<text x="155.68" y="59.20" class="small">11</text>
<line x1="162.83" y1="55.00" x2="162.83" y2="155.00" class="hair"/>
<text x="163.43" y="59.20" class="small">21</text>
<text x="171.35" y="53.00" class="label">Aug</text>
<line x1="171.35" y1="55.00" x2="171.35" y2="155.00" class="hair"/>
<text x="171.95" y="59.20" class="small">1</text>
<line x1="179.10" y1="55.00" x2="179.10" y2="155.00" class="hair"/>
<text x="179.70" y="59.20" class="small">11</text>
<line x1="186.84" y1="55.00" x2="186.84" y2="155.00" class="hair"/>
<text x="187.44" y="59.20" class="small">21</text>
<text x="195.37" y="53.00" class="label">Sep</text>
<line x1="195.37" y1="55.00" x2="195.37" y2="155.00" class="hair"/>
<text x="195.97" y="59.20" class="small">1</text>
<line x1="203.11" y1="55.00" x2="203.11" y2="155.00" class="hair"/>
<text x="203.71" y="59.20" class="small">11</text>
<line x1="210.86" y1="55.00" x2="210.86" y2="155.00" class="hair"/>
<text x="211.46" y="59.20" class="small">21</text>
<text x="218.60" y="53.00" class="label">Oct</text>
<line x1="218.60" y1="55.00" x2="218.60" y2="155.00" class="hair"/>
<text x="219.20" y="59.20" class="small">1</text>
<line x1="226.35" y1="55.00" x2="226.35" y2="155.00" class="hair"/>
<text x="226.95" y="59.20" class="small">11</text>
<line x1="234.10" y1="55.00" x2="234.10" y2="155.00" class="hair"/>
<text x="234.70" y="59.20" class="small">21</text>
<text x="242.62" y="53.00" class="label">Nov</text>
<line x1="242.62" y1="55.00" x2="242.62" y2="155.00" class="hair"/>
<text x="243.22" y="59.20" class="small">1</text>
<line x1="250.37" y1="55.00" x2="250.37" y2="155.00" class="hair"/>
<text x="250.97" y="59.20" class="small">11</text>
<line x1="258.11" y1="55.00" x2="258.11" y2="155.00" class="hair"/>
<text x="258.71" y="59.20" class="small">21</text>
<text x="265.86" y="53.00" class="label">Dec</text>
<line x1="265.86" y1="55.00" x2="265.86" y2="155.00" class="hair"/>
<text x="266.46" y="59.20" class="small">1</text>
<line x1="273.60" y1="55.00" x2="273.60" y2="155.00" class="hair"/>
<text x="274.20" y="59.20" class="small">11</text>
<line x1="281.35" y1="55.00" x2="281.35" y2="155.00" class="hair"/>
<text x="281.95" y="59.20" class="small">21</text>
<polyline points="99.31,56.10 100.09,56.33 100.86,56.56 101.63,56.79 102.41,57.01 103.18,57.23 103.96,57.45 104.73,57.65 105.51,57.86 106.28,58.06 107.06,58.26 107.83,58.45 108.61,58.64 109.38,58.82 110.16,59.00 110.93,59.17 111.70,59.34 112.48,59.51 113.25,59.67 114.03,59.82 114.80,59.97 115.58,60.11 116.35,60.25 117.13,60.39 117.90,60.52 118.68,60.64 119.45,60.76 120.23,60.88 121.00,60.99 121.77,61.09 122.55,61.19 123.32,61.28 124.10,61.37 124.87,61.45 125.65,61.53 126.42,61.60 127.20,61.67 127.97,61.73 128.75,61.79 129.52,61.84 130.30,61.88 131.07,61.92 131.85,61.96 132.62,61.99 133.39,62.01 134.17,62.03 134.94,62.05 135.72,62.06 136.49,62.06 137.27,62.06 138.04,62.05 138.82,62.04 139.59,62.03 140.37,62.01 141.14,61.98 141.92,61.95 142.69,61.91 143.46,61.87 144.24,61.83 145.01,61.78 145.79,61.72 146.56,61.66 147.34,61.60 148.11,61.53 148.89,61.45 149.66,61.38 150.44,61.30 151.21,61.21 151.99,61.12 152.76,61.02 153.54,60.93 154.31,60.82 155.08,60.72 155.86,60.61 156.63,60.49 157.41,60.37 158.18,60.25 158.96,60.13 159.73,60.00 160.51,59.87 161.28,59.73 162.06,59.59 162.83,59.45 163.61,59.31 164.38,59.16 165.15,59.01 165.93,58.86 166.70,58.70 167.48,58.54 168.25,58.38 169.03,58.21 169.80,58.05 170.58,57.88 171.35,57.70 172.13,57.53 172.90,57.35 173.68,57.17 174.45,56.99 175.23,56.81 176.00,56.63 176.77,56.44 177.55,56.25 178.32,56.06" class="thin"/>
<text x="149.31" y="60.73" class="small">5</text>
<polyline points="79.17,56.02 79.94,56.32 80.72,56.62 81.49,56.92 82.27,57.22 83.04,57.51 83.82,57.81 84.59,58.10 85.37,58.39 86.14,58.67 86.92,58.96 87.69,59.24 88.47,59.52 89.24,59.80 90.01,60.08 90.79,60.35 91.56,60.62 92.34,60.89 93.11,61.16 93.89,61.42 94.66,61.68 95.44,61.93 96.21,62.19 96.99,62.43 97.76,62.68 98.54,62.92 99.31,63.16 100.09,63.40 100.86,63.63 101.63,63.85 102.41,64.08 103.18,64.30 103.96,64.51 104.73,64.72 105.51,64.93 106.28,65.13 107.06,65.33 107.83,65.52 108.61,65.71 109.38,65.90 110.16,66.08 110.93,66.25 111.70,66.42 112.48,66.59 113.25,66.75 114.03,66.91 114.80,67.06 115.58,67.20 116.35,67.34 117.13,67.48 117.90,67.61 118.68,67.73 119.45,67.85 120.23,67.97 121.00,68.08 121.77,68.18 122.55,68.28 123.32,68.37 124.10,68.46 124.87,68.54 125.65,68.62 126.42,68.69 127.20,68.75 127.97,68.81 128.75,68.87 129.52,68.92 130.30,68.96 131.07,69.00 131.85,69.03 132.62,69.06 133.39,69.08 134.17,69.10 134.94,69.11 135.72,69.12 136.49,69.12 137.27,69.11 138.04,69.10 138.82,69.09 139.59,69.07 140.37,69.04 141.14,69.01 141.92,68.98 142.69,68.94 143.46,68.89 144.24,68.84 145.01,68.79 145.79,68.73 146.56,68.67 147.34,68.60 148.11,68.53 148.89,68.45 149.66,68.37 150.44,68.28 151.21,68.19 151.99,68.10 152.76,68.00 153.54,67.90 154.31,67.79 155.08,67.68 155.86,67.57 156.63,67.45 157.41,67.33 158.18,67.20 158.96,67.08 159.73,66.95 160.51,66.81 161.28,66.67 162.06,66.53 162.83,66.39 163.61,66.24 164.38,66.10 165.15,65.94 165.93,65.79 166.70,65.63 167.48,65.47 168.25,65.31 169.03,65.15 169.80,64.98 170.58,64.81 171.35,64.64 172.13,64.47 172.90,64.29 173.68,64.11 174.45,63.93 175.23,63.75 176.00,63.57 176.77,63.39 177.55,63.20 178.32,63.01 179.10,62.83 179.87,62.64 180.65,62.44 181.42,62.25 182.20,62.06 182.97,61.86 183.75,61.66 184.52,61.47 185.30,61.27 186.07,61.07 186.84,60.87 187.62,60.66 188.39,60.46 189.17,60.26 189.94,60.05 190.72,59.85 191.49,59.64 192.27,59.43 193.04,59.22 193.82,59.01 194.59,58.80 195.37,58.59 196.14,58.38 196.91,58.17 197.69,57.96 198.46,57.75 199.24,57.53 200.01,57.32 200.79,57.10 201.56,56.89 202.34,56.67 203.11,56.45 203.89,56.23 204.66,56.02" class="thin"/>
<text x="149.31" y="67.73" class="small">6</text>
<polyline points="61.35,56.24 62.13,56.54 62.90,56.85 63.68,57.16 64.45,57.47 65.23,57.78 66.00,58.09 66.78,58.40 67.55,58.72 68.32,59.03 69.10,59.34 69.87,59.66 70.65,59.97 71.42,60.29 72.20,60.60 72.97,60.92 73.75,61.23 74.52,61.55 75.30,61.86 76.07,62.18 76.85,62.49 77.62,62.80 78.40,63.12 79.17,63.43 79.94,63.74 80.72,64.05 81.49,64.36 82.27,64.66 83.04,64.97 83.82,65.28 84.59,65.58 85.37,65.88 86.14,66.18 86.92,66.48 87.69,66.77 88.47,67.07 89.24,67.36 90.01,67.65 90.79,67.94 91.56,68.22 92.34,68.51 93.11,68.79 93.89,69.06 94.66,69.34 95.44,69.61 96.21,69.88 96.99,70.14 97.76,70.40 98.54,70.66 99.31,70.92 100.09,71.17 100.86,71.41 101.63,71.66 102.41,71.90 103.18,72.13 103.96,72.36 104.73,72.59 105.51,72.81 106.28,73.03 107.06,73.24 107.83,73.45 108.61,73.66 109.38,73.85 110.16,74.05 110.93,74.24 111.70,74.42 112.48,74.60 113.25,74.77 114.03,74.94 114.80,75.11 115.58,75.26 116.35,75.42 117.13,75.56 117.90,75.70 118.68,75.84 119.45,75.97 120.23,76.09 121.00,76.21 121.77,76.32 122.55,76.43 123.32,76.53 124.10,76.62 124.87,76.71 125.65,76.79 126.42,76.87 127.20,76.94 127.97,77.00 128.75,77.06 129.52,77.11 130.30,77.15 131.07,77.19 131.85,77.23 132.62,77.26 133.39,77.28 134.17,77.30 134.94,77.31 135.72,77.31 136.49,77.31 137.27,77.30 138.04,77.29 138.82,77.27 139.59,77.25 140.37,77.22 141.14,77.18 141.92,77.14 142.69,77.10 143.46,77.05 144.24,76.99 145.01,76.93 145.79,76.86 146.56,76.79 147.34,76.71 148.11,76.63 148.89,76.55 149.66,76.46 150.44,76.36 151.21,76.26 151.99,76.16 152.76,76.05 153.54,75.94 154.31,75.83 155.08,75.71 155.86,75.58 156.63,75.45 157.41,75.32 158.18,75.19 158.96,75.05 159.73,74.91 160.51,74.76 161.28,74.61 162.06,74.46 162.83,74.31 163.61,74.15 164.38,73.99 165.15,73.83 165.93,73.66 166.70,73.49 167.48,73.32 168.25,73.15 169.03,72.97 169.80,72.80 170.58,72.62 171.35,72.44 172.13,72.25 172.90,72.07 173.68,71.88 174.45,71.69 175.23,71.50 176.00,71.30 176.77,71.11 177.55,70.91 178.32,70.72 179.10,70.52 179.87,70.32 180.65,70.12 181.42,69.91 182.20,69.71 182.97,69.50 183.75,69.30 184.52,69.09 185.30,68.88 186.07,68.67 186.84,68.46 187.62,68.25 188.39,68.04 189.17,67.83 189.94,67.61 190.72,67.40 191.49,67.18 192.27,66.97 193.04,66.75 193.82,66.53 194.59,66.32 195.37,66.10 196.14,65.88 196.91,65.66 197.69,65.44 198.46,65.22 199.24,65.00 200.01,64.77 200.79,64.55 201.56,64.33 202.34,64.10 203.11,63.88 203.89,63.65 204.66,63.43 205.44,63.20 206.21,62.98 206.99,62.75 207.76,62.52 208.53,62.30 209.31,62.07 210.08,61.84 210.86,61.61 211.63,61.38 212.41,61.15 213.18,60.92 213.96,60.69 214.73,60.46 215.51,60.22 216.28,59.99 217.06,59.76 217.83,59.53 218.60,59.29 219.38,59.06 220.15,58.83 220.93,58.59 221.70,58.36 222.48,58.12 223.25,57.89 224.03,57.65 224.80,57.42 225.58,57.18 226.35,56.94 227.13,56.71 227.90,56.47 228.68,56.24 229.45,56.00" class="thin"/>
<text x="149.31" y="75.83" class="small">7</text>
<polyline points="41.21,55.99 41.99,56.24 42.76,56.49 43.54,56.74 44.31,56.99 45.09,57.25 45.86,57.51 46.63,57.78 47.41,58.05 48.18,58.32 48.96,58.60 49.73,58.88 50.51,59.16 51.28,59.45 52.06,59.74 52.83,60.03 53.61,60.33 54.38,60.62 55.16,60.93 55.93,61.23 56.71,61.53 57.48,61.84 58.25,62.15 59.03,62.46 59.80,62.78 60.58,63.10 61.35,63.42 62.13,63.74 62.90,64.06 63.68,64.38 64.45,64.71 65.23,65.04 66.00,65.37 66.78,65.70 67.55,66.03 68.32,66.36 69.10,66.70 69.87,67.03 70.65,67.37 71.42,67.70 72.20,68.04 72.97,68.38 73.75,68.72 74.52,69.06 75.30,69.40 76.07,69.74 76.85,70.08 77.62,70.42 78.40,70.76 79.17,71.10 79.94,71.44 80.72,71.77 81.49,72.11 82.27,72.45 83.04,72.79 83.82,73.12 84.59,73.46 85.37,73.79 86.14,74.13 86.92,74.46 87.69,74.79 88.47,75.11 89.24,75.44 90.01,75.77 90.79,76.09 91.56,76.41 92.34,76.73 93.11,77.04 93.89,77.36 94.66,77.67 95.44,77.97 96.21,78.28 96.99,78.58 97.76,78.88 98.54,79.17 99.31,79.46 100.09,79.75 100.86,80.03 101.63,80.31 102.41,80.59 103.18,80.86 103.96,81.13 104.73,81.39 105.51,81.65 106.28,81.90 107.06,82.15 107.83,82.39 108.61,82.63 109.38,82.86 110.16,83.09 110.93,83.31 111.70,83.52 112.48,83.73 113.25,83.93 114.03,84.13 114.80,84.32 115.58,84.51 116.35,84.69 117.13,84.86 117.90,85.03 118.68,85.18 119.45,85.34 120.23,85.48 121.00,85.62 121.77,85.75 122.55,85.88 123.32,86.00 124.10,86.11 124.87,86.21 125.65,86.31 126.42,86.40 127.20,86.48 127.97,86.56 128.75,86.63 129.52,86.69 130.30,86.74 131.07,86.79 131.85,86.83 132.62,86.86 133.39,86.89 134.17,86.91 134.94,86.92 135.72,86.93 136.49,86.93 137.27,86.92 138.04,86.90 138.82,86.88 139.59,86.85 140.37,86.82 141.14,86.78 141.92,86.73 142.69,86.68 143.46,86.62 144.24,86.55 145.01,86.48 145.79,86.40 146.56,86.31 147.34,86.23 148.11,86.13 148.89,86.03 149.66,85.92 150.44,85.81 151.21,85.70 151.99,85.57 152.76,85.45 153.54,85.32 154.31,85.18 155.08,85.04 155.86,84.90 156.63,84.75 157.41,84.59 158.18,84.44 158.96,84.27 159.73,84.11 160.51,83.94 161.28,83.77 162.06,83.59 162.83,83.41 163.61,83.23 164.38,83.04 165.15,82.86 165.93,82.66 166.70,82.47 167.48,82.27 168.25,82.07 169.03,81.87 169.80,81.66 170.58,81.46 171.35,81.25 172.13,81.04 172.90,80.82 173.68,80.61 174.45,80.39 175.23,80.17 176.00,79.95 176.77,79.73 177.55,79.50 178.32,79.28 179.10,79.05 179.87,78.82 180.65,78.59 181.42,78.36 182.20,78.13 182.97,77.89 183.75,77.66 184.52,77.42 185.30,77.18 186.07,76.95 186.84,76.71 187.62,76.47 188.39,76.23 189.17,75.99 189.94,75.74 190.72,75.50 191.49,75.26 192.27,75.01 193.04,74.77 193.82,74.52 194.59,74.28 195.37,74.03 196.14,73.78 196.91,73.53 197.69,73.29 198.46,73.04 199.24,72.79 200.01,72.54 200.79,72.29 201.56,72.04 202.34,71.79 203.11,71.53 203.89,71.28 204.66,71.03 205.44,70.78 206.21,70.52 206.99,70.27 207.76,70.02 208.53,69.76 209.31,69.51 210.08,69.25 210.86,69.00 211.63,68.74 212.41,68.49 213.18,68.23 213.96,67.98 214.73,67.72 215.51,67.46 216.28,67.21 217.06,66.95 217.83,66.69 218.60,66.44 219.38,66.18 220.15,65.92 220.93,65.67 221.70,65.41 222.48,65.15 223.25,64.90 224.03,64.64 224.80,64.38 225.58,64.13 226.35,63.87 227.13,63.62 227.90,63.36 228.68,63.10 229.45,62.85 230.22,62.60 231.00,62.34 231.77,62.09 232.55,61.84 233.32,61.59 234.10,61.33 234.87,61.08 235.65,60.83 236.42,60.59 237.20,60.34 237.97,60.09 238.75,59.85 239.52,59.60 240.29,59.36 241.07,59.12 241.84,58.88 242.62,58.64 243.39,58.40 244.17,58.17 244.94,57.93 245.72,57.70 246.49,57.47 247.27,57.24 248.04,57.02 248.82,56.79 249.59,56.57 250.37,56.35 251.14,56.13" class="thin"/>
<text x="149.31" y="85.33" class="small">8</text>
<polyline points="9.45,56.00 10.23,56.04 11.00,56.08 11.78,56.14 12.55,56.19 13.33,56.26 14.10,56.33 14.87,56.40 15.65,56.48 16.42,56.57 17.20,56.66 17.97,56.76 18.75,56.87 19.52,56.98 20.30,57.10 21.07,57.22 21.85,57.35 22.62,57.48 23.40,57.62 24.17,57.77 24.95,57.92 25.72,58.07 26.49,58.24 27.27,58.40 28.04,58.58 28.82,58.76 29.59,58.94 30.37,59.13 31.14,59.32 31.92,59.52 32.69,59.73 33.47,59.94 34.24,60.15 35.02,60.37 35.79,60.59 36.56,60.82 37.34,61.06 38.11,61.29 38.89,61.54 39.66,61.79 40.44,62.04 41.21,62.29 41.99,62.56 42.76,62.82 43.54,63.09 44.31,63.36 45.09,63.64 45.86,63.92 46.63,64.21 47.41,64.50 48.18,64.79 48.96,65.09 49.73,65.39 50.51,65.70 51.28,66.01 52.06,66.32 52.83,66.64 53.61,66.95 54.38,67.28 55.16,67.60 55.93,67.93 56.71,68.26 57.48,68.60 58.25,68.94 59.03,69.28 59.80,69.62 60.58,69.97 61.35,70.32 62.13,70.67 62.90,71.03 63.68,71.39 64.45,71.74 65.23,72.11 66.00,72.47 66.78,72.84 67.55,73.21 68.32,73.58 69.10,73.95 69.87,74.33 70.65,74.70 71.42,75.08 72.20,75.46 72.97,75.84 73.75,76.22 74.52,76.61 75.30,76.99 76.07,77.38 76.85,77.77 77.62,78.15 78.40,78.54 79.17,78.93 79.94,79.32 80.72,79.71 81.49,80.10 82.27,80.49 83.04,80.88 83.82,81.27 84.59,81.67 85.37,82.06 86.14,82.44 86.92,82.83 87.69,83.22 88.47,83.61 89.24,83.99 90.01,84.38 90.79,84.76 91.56,85.14 92.34,85.52 93.11,85.90 93.89,86.28 94.66,86.65 95.44,87.02 96.21,87.39 96.99,87.75 97.76,88.12 98.54,88.48 99.31,88.83 100.09,89.18 100.86,89.53 101.63,89.87 102.41,90.21 103.18,90.55 103.96,90.88 104.73,91.20 105.51,91.53 106.28,91.84 107.06,92.15 107.83,92.45 108.61,92.75 109.38,93.05 110.16,93.33 110.93,93.61 111.70,93.88 112.48,94.15 113.25,94.41 114.03,94.66 114.80,94.91 115.58,95.14 116.35,95.37 117.13,95.60 117.90,95.81 118.68,96.02 119.45,96.21 120.23,96.40 121.00,96.59 121.77,96.76 122.55,96.92 123.32,97.08 124.10,97.22 124.87,97.36 125.65,97.49 126.42,97.61 127.20,97.72 127.97,97.82 128.75,97.92 129.52,98.00 130.30,98.07 131.07,98.14 131.85,98.20 132.62,98.24 133.39,98.28 134.17,98.31 134.94,98.33 135.72,98.34 136.49,98.34 137.27,98.34 138.04,98.32 138.82,98.30 139.59,98.26 140.37,98.22 141.14,98.17 141.92,98.12 142.69,98.05 143.46,97.98 144.24,97.90 145.01,97.81 145.79,97.71 146.56,97.60 147.34,97.49 148.11,97.37 148.89,97.25 149.66,97.11 150.44,96.97 151.21,96.83 151.99,96.68 152.76,96.52 153.54,96.35 154.31,96.18 155.08,96.00 155.86,95.82 156.63,95.63 157.41,95.44 158.18,95.24 158.96,95.04 159.73,94.83 160.51,94.62 161.28,94.40 162.06,94.18 162.83,93.95 163.61,93.72 164.38,93.49 165.15,93.25 165.93,93.01 166.70,92.77 167.48,92.52 168.25,92.27 169.03,92.02 169.80,91.76 170.58,91.50 171.35,91.24 172.13,90.97 172.90,90.71 173.68,90.44 174.45,90.17 175.23,89.89 176.00,89.62 176.77,89.34 177.55,89.06 178.32,88.78 179.10,88.50 179.87,88.21 180.65,87.93 181.42,87.64 182.20,87.35 182.97,87.06 183.75,86.77 184.52,86.48 185.30,86.19 186.07,85.90 186.84,85.60 187.62,85.31 188.39,85.01 189.17,84.72 189.94,84.42 190.72,84.12 191.49,83.82 192.27,83.52 193.04,83.22 193.82,82.92 194.59,82.62 195.37,82.32 196.14,82.02 196.91,81.72 197.69,81.42 198.46,81.12 199.24,80.81 200.01,80.51 200.79,80.21 201.56,79.91 202.34,79.60 203.11,79.30 203.89,79.00 204.66,78.69 205.44,78.39 206.21,78.09 206.99,77.79 207.76,77.48 208.53,77.18 209.31,76.88 210.08,76.57 210.86,76.27 211.63,75.97 212.41,75.67 213.18,75.37 213.96,75.06 214.73,74.76 215.51,74.46 216.28,74.16 217.06,73.86 217.83,73.56 218.60,73.26 219.38,72.96 220.15,72.67 220.93,72.37 221.70,72.07 222.48,71.78 223.25,71.48 224.03,71.19 224.80,70.89 225.58,70.60 226.35,70.31 227.13,70.02 227.90,69.73 228.68,69.44 229.45,69.15 230.22,68.86 231.00,68.58 231.77,68.29 232.55,68.01 233.32,67.73 234.10,67.45 234.87,67.17 235.65,66.89 236.42,66.62 237.20,66.34 237.97,66.07 238.75,65.80 239.52,65.54 240.29,65.27 241.07,65.01 241.84,64.74 242.62,64.48 243.39,64.23 244.17,63.97 244.94,63.72 245.72,63.47 246.49,63.22 247.27,62.98 248.04,62.74 248.82,62.50 249.59,62.26 250.37,62.03 251.14,61.80 251.91,61.57 252.69,61.35 253.46,61.13 254.24,60.91 255.01,60.70 255.79,60.49 256.56,60.28 257.34,60.08 258.11,59.88 258.89,59.69 259.66,59.50 260.44,59.31 261.21,59.13 261.98,58.95 262.76,58.77 263.53,58.61 264.31,58.44 265.08,58.28 265.86,58.12 266.63,57.97 267.41,57.83 268.18,57.68 268.96,57.55 269.73,57.42 270.51,57.29 271.28,57.17 272.05,57.05 272.83,56.94 273.60,56.83 274.38,56.73 275.15,56.64 275.93,56.55 276.70,56.46 277.48,56.39 278.25,56.31 279.03,56.25 279.80,56.18 280.58,56.13 281.35,56.08 282.13,56.03 282.90,56.00" class="thin"/>
<text x="149.31" y="96.57" class="small">9</text>
<polyline points="7.13,60.54 7.90,60.58 8.68,60.62 9.45,60.66 10.23,60.72 11.00,60.78 11.78,60.84 12.55,60.91 13.33,60.99 14.10,61.08 14.87,61.17 15.65,61.27 16.42,61.37 17.20,61.48 17.97,61.59 18.75,61.72 19.52,61.84 20.30,61.98 21.07,62.12 21.85,62.26 22.62,62.42 23.40,62.57 24.17,62.74 24.95,62.91 25.72,63.08 26.49,63.26 27.27,63.45 28.04,63.64 28.82,63.84 29.59,64.04 30.37,64.25 31.14,64.47 31.92,64.69 32.69,64.91 33.47,65.14 34.24,65.38 35.02,65.62 35.79,65.87 36.56,66.12 37.34,66.38 38.11,66.64 38.89,66.91 39.66,67.18 40.44,67.46 41.21,67.74 41.99,68.02 42.76,68.32 43.54,68.61 44.31,68.91 45.09,69.22 45.86,69.53 46.63,69.85 47.41,70.16 48.18,70.49 48.96,70.82 49.73,71.15 50.51,71.49 51.28,71.83 52.06,72.17 52.83,72.52 53.61,72.88 54.38,73.24 55.16,73.60 55.93,73.96 56.71,74.33 57.48,74.71 58.25,75.09 59.03,75.47 59.80,75.85 60.58,76.24 61.35,76.64 62.13,77.03 62.90,77.43 63.68,77.84 64.45,78.24 65.23,78.65 66.00,79.07 66.78,79.48 67.55,79.90 68.32,80.33 69.10,80.75 69.87,81.18 70.65,81.61 71.42,82.05 72.20,82.48 72.97,82.92 73.75,83.37 74.52,83.81 75.30,84.26 76.07,84.71 76.85,85.16 77.62,85.62 78.40,86.07 79.17,86.53 79.94,86.99 80.72,87.45 81.49,87.92 82.27,88.38 83.04,88.85 83.82,89.31 84.59,89.78 85.37,90.25 86.14,90.72 86.92,91.19 87.69,91.66 88.47,92.13 89.24,92.60 90.01,93.07 90.79,93.54 91.56,94.01 92.34,94.48 93.11,94.95 93.89,95.42 94.66,95.88 95.44,96.35 96.21,96.81 96.99,97.27 97.76,97.73 98.54,98.18 99.31,98.63 100.09,99.08 100.86,99.53 101.63,99.97 102.41,100.41 103.18,100.84 103.96,101.27 104.73,101.69 105.51,102.11 106.28,102.53 107.06,102.93 107.83,103.34 108.61,103.73 109.38,104.12 110.16,104.50 110.93,104.88 111.70,105.25 112.48,105.61 113.25,105.96 114.03,106.30 114.80,106.64 115.58,106.96 116.35,107.28 117.13,107.59 117.90,107.89 118.68,108.17 119.45,108.45 120.23,108.72 121.00,108.98 121.77,109.22 122.55,109.46 123.32,109.68 124.10,109.89 124.87,110.09 125.65,110.28 126.42,110.46 127.20,110.62 127.97,110.77 128.75,110.91 129.52,111.04 130.30,111.15 131.07,111.26 131.85,111.35 132.62,111.43 133.39,111.49 134.17,111.54 134.94,111.58 135.72,111.61 136.49,111.63 137.27,111.63 138.04,111.62 138.82,111.60 139.59,111.57 140.37,111.52 141.14,111.47 141.92,111.40 142.69,111.32 143.46,111.23 144.24,111.12 145.01,111.01 145.79,110.89 146.56,110.75 147.34,110.61 148.11,110.45 148.89,110.29 149.66,110.11 150.44,109.93 151.21,109.73 151.99,109.53 152.76,109.32 153.54,109.10 154.31,108.87 155.08,108.63 155.86,108.39 156.63,108.14 157.41,107.88 158.18,107.61 158.96,107.34 159.73,107.06 160.51,106.77 161.28,106.48 162.06,106.18 162.83,105.88 163.61,105.57 164.38,105.26 165.15,104.94 165.93,104.62 166.70,104.29 167.48,103.96 168.25,103.62 169.03,103.28 169.80,102.94 170.58,102.59 171.35,102.24 172.13,101.89 172.90,101.53 173.68,101.17 174.45,100.81 175.23,100.45 176.00,100.08 176.77,99.71 177.55,99.34 178.32,98.97 179.10,98.59 179.87,98.22 180.65,97.84 181.42,97.46 182.20,97.09 182.97,96.70 183.75,96.32 184.52,95.94 185.30,95.56 186.07,95.18 186.84,94.79 187.62,94.41 188.39,94.02 189.17,93.64 189.94,93.25 190.72,92.87 191.49,92.48 192.27,92.09 193.04,91.71 193.82,91.32 194.59,90.94 195.37,90.55 196.14,90.17 196.91,89.78 197.69,89.40 198.46,89.01 199.24,88.63 200.01,88.25 200.79,87.87 201.56,87.49 202.34,87.10 203.11,86.72 203.89,86.34 204.66,85.97 205.44,85.59 206.21,85.21 206.99,84.84 207.76,84.46 208.53,84.09 209.31,83.71 210.08,83.34 210.86,82.97 211.63,82.60 212.41,82.23 213.18,81.87 213.96,81.50 214.73,81.14 215.51,80.77 216.28,80.41 217.06,80.05 217.83,79.69 218.60,79.33 219.38,78.98 220.15,78.62 220.93,78.27 221.70,77.92 222.48,77.57 223.25,77.22 224.03,76.88 224.80,76.54 225.58,76.19 226.35,75.85 227.13,75.52 227.90,75.18 228.68,74.85 229.45,74.51 230.22,74.19 231.00,73.86 231.77,73.53 232.55,73.21 233.32,72.89 234.10,72.58 234.87,72.26 235.65,71.95 236.42,71.64 237.20,71.33 237.97,71.03 238.75,70.73 239.52,70.43 240.29,70.14 241.07,69.84 241.84,69.56 242.62,69.27 243.39,68.99 244.17,68.71 244.94,68.43 245.72,68.16 246.49,67.89 247.27,67.63 248.04,67.37 248.82,67.11 249.59,66.86 250.37,66.61 251.14,66.36 251.91,66.12 252.69,65.88 253.46,65.65 254.24,65.42 255.01,65.19 255.79,64.97 256.56,64.76 257.34,64.55 258.11,64.34 258.89,64.14 259.66,63.94 260.44,63.75 261.21,63.56 261.98,63.38 262.76,63.20 263.53,63.03 264.31,62.86 265.08,62.70 265.86,62.54 266.63,62.39 267.41,62.24 268.18,62.10 268.96,61.96 269.73,61.83 270.51,61.71 271.28,61.59 272.05,61.48 272.83,61.37 273.60,61.27 274.38,61.17 275.15,61.08 275.93,61.00 276.70,60.92 277.48,60.85 278.25,60.78 279.03,60.72 279.80,60.67 280.58,60.62 281.35,60.58 282.13,60.55 282.90,60.52 283.67,60.50 284.45,60.48 285.22,60.47 286.00,60.47 286.77,60.47 287.55,60.48 288.32,60.49 289.10,60.51 289.87,60.51" class="thin"/>
<text x="149.31" y="109.65" class="small">10</text>
<polyline points="7.13,63.80 7.90,63.85 8.68,63.91 9.45,63.97 10.23,64.04 11.00,64.12 11.78,64.20 12.55,64.29 13.33,64.38 14.10,64.49 14.87,64.59 15.65,64.71 16.42,64.83 17.20,64.96 17.97,65.09 18.75,65.23 19.52,65.38 20.30,65.53 21.07,65.69 21.85,65.86 22.62,66.03 23.40,66.21 24.17,66.39 24.95,66.58 25.72,66.78 26.49,66.98 27.27,67.19 28.04,67.40 28.82,67.62 29.59,67.85 30.37,68.08 31.14,68.31 31.92,68.56 32.69,68.81 33.47,69.06 34.24,69.32 35.02,69.59 35.79,69.86 36.56,70.13 37.34,70.42 38.11,70.70 38.89,71.00 39.66,71.29 40.44,71.60 41.21,71.91 41.99,72.22 42.76,72.54 43.54,72.87 44.31,73.20 45.09,73.53 45.86,73.87 46.63,74.22 47.41,74.57 48.18,74.92 48.96,75.28 49.73,75.65 50.51,76.02 51.28,76.39 52.06,76.77 52.83,77.16 53.61,77.55 54.38,77.94 55.16,78.34 55.93,78.74 56.71,79.15 57.48,79.57 58.25,79.98 59.03,80.41 59.80,80.83 60.58,81.27 61.35,81.70 62.13,82.14 62.90,82.59 63.68,83.04 64.45,83.49 65.23,83.95 66.00,84.41 66.78,84.88 67.55,85.35 68.32,85.83 69.10,86.31 69.87,86.79 70.65,87.28 71.42,87.77 72.20,88.26 72.97,88.76 73.75,89.27 74.52,89.78 75.30,90.29 76.07,90.80 76.85,91.32 77.62,91.84 78.40,92.37 79.17,92.90 79.94,93.43 80.72,93.96 81.49,94.50 82.27,95.04 83.04,95.59 83.82,96.14 84.59,96.69 85.37,97.24 86.14,97.79 86.92,98.35 87.69,98.91 88.47,99.47 89.24,100.03 90.01,100.60 90.79,101.16 91.56,101.73 92.34,102.29 93.11,102.86 93.89,103.43 94.66,104.00 95.44,104.57 96.21,105.14 96.99,105.70 97.76,106.27 98.54,106.84 99.31,107.40 100.09,107.96 100.86,108.53 101.63,109.08 102.41,109.64 103.18,110.19 103.96,110.74 104.73,111.29 105.51,111.83 106.28,112.36 107.06,112.89 107.83,113.42 108.61,113.94 109.38,114.45 110.16,114.96 110.93,115.46 111.70,115.95 112.48,116.44 113.25,116.91 114.03,117.38 114.80,117.84 115.58,118.29 116.35,118.73 117.13,119.15 117.90,119.57 118.68,119.97 119.45,120.37 120.23,120.75 121.00,121.11 121.77,121.47 122.55,121.81 123.32,122.13 124.10,122.45 124.87,122.74 125.65,123.03 126.42,123.29 127.20,123.54 127.97,123.78 128.75,124.00 129.52,124.20 130.30,124.39 131.07,124.56 131.85,124.71 132.62,124.85 133.39,124.97 134.17,125.07 134.94,125.15 135.72,125.22 136.49,125.27 137.27,125.30 138.04,125.31 138.82,125.31 139.59,125.29 140.37,125.25 141.14,125.20 141.92,125.13 142.69,125.04 143.46,124.93 144.24,124.81 145.01,124.68 145.79,124.52 146.56,124.36 147.34,124.17 148.11,123.98 148.89,123.76 149.66,123.54 150.44,123.30 151.21,123.04 151.99,122.78 152.76,122.50 153.54,122.20 154.31,121.90 155.08,121.58 155.86,121.26 156.63,120.92 157.41,120.57 158.18,120.21 158.96,119.84 159.73,119.46 160.51,119.08 161.28,118.68 162.06,118.28 162.83,117.87 163.61,117.45 164.38,117.02 165.15,116.59 165.93,116.15 166.70,115.71 167.48,115.26 168.25,114.80 169.03,114.34 169.80,113.88 170.58,113.41 171.35,112.93 172.13,112.46 172.90,111.98 173.68,111.49 174.45,111.01 175.23,110.52 176.00,110.03 176.77,109.53 177.55,109.04 178.32,108.54 179.10,108.04 179.87,107.55 180.65,107.04 181.42,106.54 182.20,106.04 182.97,105.54 183.75,105.04 184.52,104.53 185.30,104.03 186.07,103.53 186.84,103.03 187.62,102.53 188.39,102.02 189.17,101.52 189.94,101.03 190.72,100.53 191.49,100.03 192.27,99.53 193.04,99.04 193.82,98.54 194.59,98.05 195.37,97.56 196.14,97.07 196.91,96.59 197.69,96.10 198.46,95.62 199.24,95.13 200.01,94.65 200.79,94.18 201.56,93.70 202.34,93.23 203.11,92.75 203.89,92.29 204.66,91.82 205.44,91.35 206.21,90.89 206.99,90.43 207.76,89.97 208.53,89.52 209.31,89.07 210.08,88.62 210.86,88.17 211.63,87.72 212.41,87.28 213.18,86.84 213.96,86.40 214.73,85.97 215.51,85.54 216.28,85.11 217.06,84.69 217.83,84.26 218.60,83.84 219.38,83.43 220.15,83.02 220.93,82.60 221.70,82.20 222.48,81.79 223.25,81.39 224.03,81.00 224.80,80.60 225.58,80.21 226.35,79.82 227.13,79.44 227.90,79.06 228.68,78.68 229.45,78.30 230.22,77.93 231.00,77.57 231.77,77.20 232.55,76.84 233.32,76.49 234.10,76.14 234.87,75.79 235.65,75.44 236.42,75.10 237.20,74.76 237.97,74.43 238.75,74.10 239.52,73.78 240.29,73.46 241.07,73.14 241.84,72.83 242.62,72.52 243.39,72.21 244.17,71.91 244.94,71.62 245.72,71.33 246.49,71.04 247.27,70.76 248.04,70.48 248.82,70.21 249.59,69.94 250.37,69.68 251.14,69.42 251.91,69.17 252.69,68.92 253.46,68.68 254.24,68.44 255.01,68.21 255.79,67.98 256.56,67.76 257.34,67.54 258.11,67.33 258.89,67.12 259.66,66.92 260.44,66.72 261.21,66.53 261.98,66.35 262.76,66.17 263.53,66.00 264.31,65.83 265.08,65.67 265.86,65.51 266.63,65.36 267.41,65.22 268.18,65.08 268.96,64.95 269.73,64.82 270.51,64.70 271.28,64.59 272.05,64.48 272.83,64.38 273.60,64.29 274.38,64.20 275.15,64.12 275.93,64.04 276.70,63.98 277.48,63.91 278.25,63.86 279.03,63.81 279.80,63.76 280.58,63.73 281.35,63.70 282.13,63.67 282.90,63.66 283.67,63.65 284.45,63.64 285.22,63.65 286.00,63.66 286.77,63.67 287.55,63.70 288.32,63.73 289.10,63.76 289.87,63.76" class="thin"/>
<text x="149.31" y="123.18" class="small">11</text>
<polyline points="7.13,65.40 7.90,65.47 8.68,65.54 9.45,65.62 10.23,65.70 11.00,65.79 11.78,65.89 12.55,66.00 13.33,66.11 14.10,66.23 14.87,66.35 15.65,66.48 16.42,66.62 17.20,66.77 17.97,66.92 18.75,67.08 19.52,67.24 20.30,67.41 21.07,67.58 21.85,67.77 22.62,67.96 23.40,68.15 24.17,68.35 24.95,68.56 25.72,68.77 26.49,68.99 27.27,69.22 28.04,69.45 28.82,69.69 29.59,69.93 30.37,70.18 31.14,70.43 31.92,70.69 32.69,70.96 33.47,71.23 34.24,71.51 35.02,71.79 35.79,72.08 36.56,72.38 37.34,72.68 38.11,72.98 38.89,73.30 39.66,73.61 40.44,73.93 41.21,74.26 41.99,74.60 42.76,74.93 43.54,75.28 44.31,75.63 45.09,75.98 45.86,76.34 46.63,76.70 47.41,77.07 48.18,77.45 48.96,77.83 49.73,78.21 50.51,78.60 51.28,79.00 52.06,79.40 52.83,79.80 53.61,80.21 54.38,80.63 55.16,81.05 55.93,81.48 56.71,81.91 57.48,82.34 58.25,82.78 59.03,83.23 59.80,83.68 60.58,84.13 61.35,84.59 62.13,85.05 62.90,85.52 63.68,86.00 64.45,86.47 65.23,86.96 66.00,87.45 66.78,87.94 67.55,88.44 68.32,88.94 69.10,89.45 69.87,89.96 70.65,90.47 71.42,90.99 72.20,91.52 72.97,92.05 73.75,92.58 74.52,93.12 75.30,93.67 76.07,94.21 76.85,94.76 77.62,95.32 78.40,95.88 79.17,96.45 79.94,97.01 80.72,97.59 81.49,98.16 82.27,98.74 83.04,99.33 83.82,99.92 84.59,100.51 85.37,101.10 86.14,101.70 86.92,102.30 87.69,102.91 88.47,103.51 89.24,104.13 90.01,104.74 90.79,105.35 91.56,105.97 92.34,106.59 93.11,107.22 93.89,107.84 94.66,108.47 95.44,109.09 96.21,109.72 96.99,110.35 97.76,110.98 98.54,111.61 99.31,112.24 100.09,112.87 100.86,113.50 101.63,114.13 102.41,114.76 103.18,115.39 103.96,116.01 104.73,116.63 105.51,117.25 106.28,117.87 107.06,118.48 107.83,119.09 108.61,119.69 109.38,120.29 110.16,120.89 110.93,121.47 111.70,122.05 112.48,122.63 113.25,123.20 114.03,123.76 114.80,124.31 115.58,124.85 116.35,125.38 117.13,125.90 117.90,126.42 118.68,126.92 119.45,127.40 120.23,127.88 121.00,128.34 121.77,128.79 122.55,129.23 123.32,129.65 124.10,130.05 124.87,130.44 125.65,130.82 126.42,131.17 127.20,131.51 127.97,131.83 128.75,132.14 129.52,132.42 130.30,132.69 131.07,132.94 131.85,133.16 132.62,133.37 133.39,133.56 134.17,133.72 134.94,133.87 135.72,133.99 136.49,134.10 137.27,134.18 138.04,134.24 138.82,134.28 139.59,134.29 140.37,134.29 141.14,134.26 141.92,134.22 142.69,134.15 143.46,134.06 144.24,133.95 145.01,133.82 145.79,133.66 146.56,133.49 147.34,133.30 148.11,133.09 148.89,132.85 149.66,132.60 150.44,132.34 151.21,132.05 151.99,131.74 152.76,131.42 153.54,131.08 154.31,130.73 155.08,130.36 155.86,129.97 156.63,129.57 157.41,129.16 158.18,128.73 158.96,128.29 159.73,127.84 160.51,127.37 161.28,126.89 162.06,126.40 162.83,125.91 163.61,125.40 164.38,124.88 165.15,124.35 165.93,123.82 166.70,123.28 167.48,122.73 168.25,122.17 169.03,121.61 169.80,121.04 170.58,120.47 171.35,119.89 172.13,119.31 172.90,118.72 173.68,118.13 174.45,117.54 175.23,116.94 176.00,116.35 176.77,115.75 177.55,115.14 178.32,114.54 179.10,113.93 179.87,113.33 180.65,112.72 181.42,112.12 182.20,111.51 182.97,110.90 183.75,110.30 184.52,109.69 185.30,109.09 186.07,108.49 186.84,107.89 187.62,107.29 188.39,106.69 189.17,106.09 189.94,105.50 190.72,104.91 191.49,104.32 192.27,103.73 193.04,103.15 193.82,102.56 194.59,101.98 195.37,101.41 196.14,100.84 196.91,100.27 197.69,99.70 198.46,99.14 199.24,98.58 200.01,98.02 200.79,97.47 201.56,96.92 202.34,96.37 203.11,95.83 203.89,95.29 204.66,94.76 205.44,94.23 206.21,93.70 206.99,93.18 207.76,92.66 208.53,92.14 209.31,91.63 210.08,91.12 210.86,90.62 211.63,90.12 212.41,89.63 213.18,89.13 213.96,88.65 214.73,88.17 215.51,87.69 216.28,87.21 217.06,86.74 217.83,86.28 218.60,85.82 219.38,85.36 220.15,84.91 220.93,84.46 221.70,84.01 222.48,83.57 223.25,83.14 224.03,82.71 224.80,82.28 225.58,81.86 226.35,81.44 227.13,81.03 227.90,80.62 228.68,80.21 229.45,79.81 230.22,79.42 231.00,79.03 231.77,78.64 232.55,78.26 233.32,77.88 234.10,77.51 234.87,77.14 235.65,76.78 236.42,76.42 237.20,76.07 237.97,75.72 238.75,75.38 239.52,75.04 240.29,74.71 241.07,74.38 241.84,74.06 242.62,73.74 243.39,73.42 244.17,73.12 244.94,72.81 245.72,72.51 246.49,72.22 247.27,71.93 248.04,71.65 248.82,71.38 249.59,71.10 250.37,70.84 251.14,70.58 251.91,70.32 252.69,70.07 253.46,69.83 254.24,69.59 255.01,69.36 255.79,69.13 256.56,68.91 257.34,68.70 258.11,68.49 258.89,68.29 259.66,68.09 260.44,67.90 261.21,67.71 261.98,67.53 262.76,67.36 263.53,67.19 264.31,67.03 265.08,66.88 265.86,66.73 266.63,66.59 267.41,66.45 268.18,66.32 268.96,66.20 269.73,66.08 270.51,65.97 271.28,65.87 272.05,65.77 272.83,65.68 273.60,65.60 274.38,65.52 275.15,65.45 275.93,65.39 276.70,65.33 277.48,65.28 278.25,65.24 279.03,65.20 279.80,65.17 280.58,65.15 281.35,65.13 282.13,65.12 282.90,65.12 283.67,65.13 284.45,65.14 285.22,65.15 286.00,65.18 286.77,65.21 287.55,65.25 288.32,65.29 289.10,65.34 289.87,65.34" class="thin"/>
<text x="149.31" y="132.29" class="small">12</text>
<polyline points="7.13,65.14 7.90,65.22 8.68,65.31 9.45,65.40 10.23,65.50 11.00,65.60 11.78,65.71 12.55,65.83 13.33,65.96 14.10,66.09 14.87,66.22 15.65,66.37 16.42,66.52 17.20,66.67 17.97,66.84 18.75,67.00 19.52,67.18 20.30,67.36 21.07,67.55 21.85,67.74 22.62,67.94 23.40,68.14 24.17,68.35 24.95,68.57 25.72,68.79 26.49,69.02 27.27,69.25 28.04,69.49 28.82,69.74 29.59,69.99 30.37,70.24 31.14,70.50 31.92,70.77 32.69,71.04 33.47,71.32 34.24,71.60 35.02,71.89 35.79,72.19 36.56,72.48 37.34,72.79 38.11,73.10 38.89,73.41 39.66,73.73 40.44,74.05 41.21,74.38 41.99,74.72 42.76,75.05 43.54,75.40 44.31,75.75 45.09,76.10 45.86,76.46 46.63,76.82 47.41,77.19 48.18,77.56 48.96,77.93 49.73,78.31 50.51,78.70 51.28,79.09 52.06,79.48 52.83,79.88 53.61,80.29 54.38,80.69 55.16,81.10 55.93,81.52 56.71,81.94 57.48,82.37 58.25,82.80 59.03,83.23 59.80,83.67 60.58,84.11 61.35,84.55 62.13,85.00 62.90,85.46 63.68,85.92 64.45,86.38 65.23,86.84 66.00,87.31 66.78,87.79 67.55,88.27 68.32,88.75 69.10,89.23 69.87,89.72 70.65,90.22 71.42,90.72 72.20,91.22 72.97,91.72 73.75,92.23 74.52,92.74 75.30,93.26 76.07,93.78 76.85,94.30 77.62,94.83 78.40,95.36 79.17,95.89 79.94,96.43 80.72,96.97 81.49,97.51 82.27,98.06 83.04,98.61 83.82,99.16 84.59,99.72 85.37,100.28 86.14,100.84 86.92,101.40 87.69,101.97 88.47,102.54 89.24,103.11 90.01,103.68 90.79,104.26 91.56,104.83 92.34,105.41 93.11,105.99 93.89,106.58 94.66,107.16 95.44,107.74 96.21,108.33 96.99,108.92 97.76,109.50 98.54,110.09 99.31,110.68 100.09,111.27 100.86,111.85 101.63,112.44 102.41,113.03 103.18,113.61 103.96,114.19 104.73,114.77 105.51,115.35 106.28,115.93 107.06,116.50 107.83,117.07 108.61,117.64 109.38,118.21 110.16,118.77 110.93,119.32 111.70,119.87 112.48,120.41 113.25,120.95 114.03,121.48 114.80,122.01 115.58,122.53 116.35,123.04 117.13,123.54 117.90,124.03 118.68,124.52 119.45,124.99 120.23,125.45 121.00,125.91 121.77,126.35 122.55,126.78 123.32,127.20 124.10,127.60 124.87,128.00 125.65,128.37 126.42,128.74 127.20,129.09 127.97,129.42 128.75,129.74 129.52,130.04 130.30,130.33 131.07,130.60 131.85,130.85 132.62,131.08 133.39,131.30 134.17,131.49 134.94,131.67 135.72,131.83 136.49,131.97 137.27,132.09 138.04,132.19 138.82,132.27 139.59,132.33 140.37,132.36 141.14,132.38 141.92,132.38 142.69,132.36 143.46,132.31 144.24,132.25 145.01,132.16 145.79,132.06 146.56,131.93 147.34,131.79 148.11,131.62 148.89,131.43 149.66,131.23 150.44,131.01 151.21,130.76 151.99,130.50 152.76,130.22 153.54,129.92 154.31,129.61 155.08,129.27 155.86,128.92 156.63,128.56 157.41,128.18 158.18,127.78 158.96,127.37 159.73,126.95 160.51,126.51 161.28,126.06 162.06,125.59 162.83,125.12 163.61,124.63 164.38,124.13 165.15,123.62 165.93,123.10 166.70,122.58 167.48,122.04 168.25,121.49 169.03,120.94 169.80,120.38 170.58,119.81 171.35,119.24 172.13,118.66 172.90,118.08 173.68,117.49 174.45,116.90 175.23,116.30 176.00,115.70 176.77,115.10 177.55,114.49 178.32,113.88 179.10,113.27 179.87,112.66 180.65,112.04 181.42,111.43 182.20,110.81 182.97,110.20 183.75,109.58 184.52,108.97 185.30,108.35 186.07,107.74 186.84,107.13 187.62,106.52 188.39,105.91 189.17,105.30 189.94,104.69 190.72,104.09 191.49,103.49 192.27,102.89 193.04,102.29 193.82,101.70 194.59,101.11 195.37,100.52 196.14,99.93 196.91,99.35 197.69,98.77 198.46,98.20 199.24,97.63 200.01,97.06 200.79,96.50 201.56,95.94 202.34,95.38 203.11,94.83 203.89,94.28 204.66,93.74 205.44,93.20 206.21,92.66 206.99,92.13 207.76,91.60 208.53,91.08 209.31,90.56 210.08,90.05 210.86,89.54 211.63,89.03 212.41,88.53 213.18,88.03 213.96,87.54 214.73,87.06 215.51,86.57 216.28,86.09 217.06,85.62 217.83,85.15 218.60,84.69 219.38,84.23 220.15,83.77 220.93,83.32 221.70,82.88 222.48,82.44 223.25,82.00 224.03,81.57 224.80,81.14 225.58,80.72 226.35,80.30 227.13,79.89 227.90,79.49 228.68,79.08 229.45,78.69 230.22,78.29 231.00,77.91 231.77,77.52 232.55,77.15 233.32,76.77 234.10,76.41 234.87,76.04 235.65,75.69 236.42,75.33 237.20,74.99 237.97,74.64 238.75,74.31 239.52,73.97 240.29,73.65 241.07,73.33 241.84,73.01 242.62,72.70 243.39,72.39 244.17,72.09 244.94,71.80 245.72,71.51 246.49,71.23 247.27,70.95 248.04,70.68 248.82,70.41 249.59,70.15 250.37,69.89 251.14,69.64 251.91,69.40 252.69,69.16 253.46,68.93 254.24,68.70 255.01,68.48 255.79,68.26 256.56,68.06 257.34,67.85 258.11,67.66 258.89,67.46 259.66,67.28 260.44,67.10 261.21,66.93 261.98,66.76 262.76,66.60 263.53,66.45 264.31,66.30 265.08,66.16 265.86,66.03 266.63,65.90 267.41,65.78 268.18,65.66 268.96,65.55 269.73,65.45 270.51,65.36 271.28,65.27 272.05,65.18 272.83,65.11 273.60,65.04 274.38,64.98 275.15,64.92 275.93,64.87 276.70,64.83 277.48,64.80 278.25,64.77 279.03,64.74 279.80,64.73 280.58,64.72 281.35,64.72 282.13,64.72 282.90,64.74 283.67,64.75 284.45,64.78 285.22,64.81 286.00,64.85 286.77,64.90 287.55,64.95 288.32,65.01 289.10,65.07 289.87,65.07" class="thin"/>
<text x="149.31" y="130.82" class="small">13</text>
<polyline points="7.13,63.06 7.90,63.15 8.68,63.24 9.45,63.35 10.23,63.45 11.00,63.57 11.78,63.69 12.55,63.81 13.33,63.94 14.10,64.08 14.87,64.22 15.65,64.37 16.42,64.53 17.20,64.69 17.97,64.86 18.75,65.03 19.52,65.21 20.30,65.39 21.07,65.58 21.85,65.77 22.62,65.97 23.40,66.18 24.17,66.39 24.95,66.61 25.72,66.83 26.49,67.05 27.27,67.28 28.04,67.52 28.82,67.76 29.59,68.01 30.37,68.26 31.14,68.51 31.92,68.77 32.69,69.04 33.47,69.31 34.24,69.58 35.02,69.86 35.79,70.14 36.56,70.43 37.34,70.72 38.11,71.02 38.89,71.32 39.66,71.62 40.44,71.93 41.21,72.24 41.99,72.56 42.76,72.88 43.54,73.20 44.31,73.53 45.09,73.86 45.86,74.20 46.63,74.54 47.41,74.88 48.18,75.23 48.96,75.58 49.73,75.93 50.51,76.28 51.28,76.64 52.06,77.01 52.83,77.37 53.61,77.74 54.38,78.12 55.16,78.49 55.93,78.87 56.71,79.25 57.48,79.64 58.25,80.02 59.03,80.42 59.80,80.81 60.58,81.20 61.35,81.60 62.13,82.01 62.90,82.41 63.68,82.82 64.45,83.23 65.23,83.64 66.00,84.06 66.78,84.47 67.55,84.89 68.32,85.32 69.10,85.74 69.87,86.17 70.65,86.60 71.42,87.03 72.20,87.46 72.97,87.90 73.75,88.34 74.52,88.78 75.30,89.22 76.07,89.66 76.85,90.11 77.62,90.56 78.40,91.01 79.17,91.46 79.94,91.91 80.72,92.37 81.49,92.82 82.27,93.28 83.04,93.74 83.82,94.20 84.59,94.66 85.37,95.13 86.14,95.59 86.92,96.06 87.69,96.53 88.47,96.99 89.24,97.46 90.01,97.93 90.79,98.40 91.56,98.87 92.34,99.34 93.11,99.82 93.89,100.29 94.66,100.76 95.44,101.23 96.21,101.70 96.99,102.17 97.76,102.65 98.54,103.12 99.31,103.59 100.09,104.05 100.86,104.52 101.63,104.99 102.41,105.45 103.18,105.92 103.96,106.38 104.73,106.84 105.51,107.30 106.28,107.75 107.06,108.20 107.83,108.65 108.61,109.10 109.38,109.54 110.16,109.98 110.93,110.42 111.70,110.85 112.48,111.28 113.25,111.70 114.03,112.12 114.80,112.53 115.58,112.93 116.35,113.33 117.13,113.73 117.90,114.12 118.68,114.50 119.45,114.87 120.23,115.24 121.00,115.59 121.77,115.94 122.55,116.29 123.32,116.62 124.10,116.94 124.87,117.26 125.65,117.56 126.42,117.85 127.20,118.14 127.97,118.41 128.75,118.67 129.52,118.92 130.30,119.16 131.07,119.38 131.85,119.59 132.62,119.79 133.39,119.98 134.17,120.15 134.94,120.31 135.72,120.46 136.49,120.59 137.27,120.71 138.04,120.81 138.82,120.90 139.59,120.97 140.37,121.03 141.14,121.07 141.92,121.10 142.69,121.11 143.46,121.11 144.24,121.08 145.01,121.05 145.79,121.00 146.56,120.93 147.34,120.85 148.11,120.75 148.89,120.63 149.66,120.50 150.44,120.36 151.21,120.20 151.99,120.02 152.76,119.83 153.54,119.62 154.31,119.40 155.08,119.16 155.86,118.91 156.63,118.65 157.41,118.37 158.18,118.08 158.96,117.78 159.73,117.46 160.51,117.13 161.28,116.79 162.06,116.44 162.83,116.07 163.61,115.69 164.38,115.31 165.15,114.91 165.93,114.50 166.70,114.09 167.48,113.66 168.25,113.23 169.03,112.78 169.80,112.33 170.58,111.87 171.35,111.41 172.13,110.94 172.90,110.46 173.68,109.97 174.45,109.48 175.23,108.99 176.00,108.48 176.77,107.98 177.55,107.47 178.32,106.96 179.10,106.44 179.87,105.92 180.65,105.40 181.42,104.87 182.20,104.34 182.97,103.82 183.75,103.28 184.52,102.75 185.30,102.22 186.07,101.68 186.84,101.15 187.62,100.61 188.39,100.08 189.17,99.54 189.94,99.01 190.72,98.48 191.49,97.94 192.27,97.41 193.04,96.88 193.82,96.35 194.59,95.82 195.37,95.29 196.14,94.77 196.91,94.25 197.69,93.72 198.46,93.21 199.24,92.69 200.01,92.17 200.79,91.66 201.56,91.15 202.34,90.65 203.11,90.15 203.89,89.64 204.66,89.15 205.44,88.65 206.21,88.16 206.99,87.67 207.76,87.19 208.53,86.71 209.31,86.23 210.08,85.76 210.86,85.29 211.63,84.82 212.41,84.36 213.18,83.90 213.96,83.44 214.73,82.99 215.51,82.54 216.28,82.10 217.06,81.66 217.83,81.22 218.60,80.79 219.38,80.36 220.15,79.94 220.93,79.52 221.70,79.11 222.48,78.70 223.25,78.29 224.03,77.89 224.80,77.49 225.58,77.09 226.35,76.71 227.13,76.32 227.90,75.94 228.68,75.56 229.45,75.19 230.22,74.83 231.00,74.46 231.77,74.11 232.55,73.75 233.32,73.40 234.10,73.06 234.87,72.72 235.65,72.39 236.42,72.06 237.20,71.73 237.97,71.41 238.75,71.10 239.52,70.79 240.29,70.48 241.07,70.19 241.84,69.89 242.62,69.60 243.39,69.32 244.17,69.04 244.94,68.76 245.72,68.50 246.49,68.23 247.27,67.97 248.04,67.72 248.82,67.48 249.59,67.23 250.37,67.00 251.14,66.77 251.91,66.54 252.69,66.32 253.46,66.11 254.24,65.90 255.01,65.70 255.79,65.50 256.56,65.31 257.34,65.13 258.11,64.95 258.89,64.78 259.66,64.61 260.44,64.45 261.21,64.30 261.98,64.15 262.76,64.01 263.53,63.87 264.31,63.74 265.08,63.62 265.86,63.50 266.63,63.39 267.41,63.29 268.18,63.19 268.96,63.09 269.73,63.01 270.51,62.93 271.28,62.86 272.05,62.79 272.83,62.73 273.60,62.68 274.38,62.63 275.15,62.59 275.93,62.56 276.70,62.53 277.48,62.51 278.25,62.50 279.03,62.49 279.80,62.49 280.58,62.49 281.35,62.50 282.13,62.52 282.90,62.55 283.67,62.58 284.45,62.62 285.22,62.66 286.00,62.71 286.77,62.77 287.55,62.83 288.32,62.90 289.10,62.98 289.87,62.98" class="thin"/>
<text x="149.31" y="119.95" class="small">14</text>
<polyline points="7.13,59.39 7.90,59.49 8.68,59.59 9.45,59.70 10.23,59.81 11.00,59.93 11.78,60.05 12.55,60.18 13.33,60.31 14.10,60.45 14.87,60.60 15.65,60.75 16.42,60.91 17.20,61.07 17.97,61.23 18.75,61.40 19.52,61.58 20.30,61.76 21.07,61.95 21.85,62.14 22.62,62.33 23.40,62.53 24.17,62.74 24.95,62.95 25.72,63.16 26.49,63.38 27.27,63.60 28.04,63.83 28.82,64.06 29.59,64.29 30.37,64.53 31.14,64.77 31.92,65.02 32.69,65.26 33.47,65.52 34.24,65.77 35.02,66.04 35.79,66.30 36.56,66.57 37.34,66.84 38.11,67.11 38.89,67.39 39.66,67.67 40.44,67.95 41.21,68.24 41.99,68.52 42.76,68.82 43.54,69.11 44.31,69.41 45.09,69.71 45.86,70.01 46.63,70.31 47.41,70.62 48.18,70.93 48.96,71.24 49.73,71.56 50.51,71.87 51.28,72.19 52.06,72.51 52.83,72.83 53.61,73.16 54.38,73.48 55.16,73.81 55.93,74.14 56.71,74.47 57.48,74.81 58.25,75.14 59.03,75.48 59.80,75.82 60.58,76.16 61.35,76.50 62.13,76.84 62.90,77.18 63.68,77.53 64.45,77.88 65.23,78.22 66.00,78.57 66.78,78.92 67.55,79.27 68.32,79.63 69.10,79.98 69.87,80.33 70.65,80.69 71.42,81.04 72.20,81.40 72.97,81.76 73.75,82.12 74.52,82.47 75.30,82.83 76.07,83.19 76.85,83.55 77.62,83.92 78.40,84.28 79.17,84.64 79.94,85.00 80.72,85.37 81.49,85.73 82.27,86.09 83.04,86.46 83.82,86.82 84.59,87.19 85.37,87.55 86.14,87.91 86.92,88.28 87.69,88.64 88.47,89.01 89.24,89.37 90.01,89.73 90.79,90.10 91.56,90.46 92.34,90.82 93.11,91.19 93.89,91.55 94.66,91.91 95.44,92.27 96.21,92.63 96.99,92.99 97.76,93.34 98.54,93.70 99.31,94.05 100.09,94.41 100.86,94.76 101.63,95.11 102.41,95.46 103.18,95.80 103.96,96.15 104.73,96.49 105.51,96.83 106.28,97.17 107.06,97.51 107.83,97.84 108.61,98.17 109.38,98.50 110.16,98.83 110.93,99.15 111.70,99.47 112.48,99.78 113.25,100.09 114.03,100.40 114.80,100.70 115.58,101.00 116.35,101.29 117.13,101.58 117.90,101.87 118.68,102.15 119.45,102.42 120.23,102.69 121.00,102.96 121.77,103.21 122.55,103.47 123.32,103.71 124.10,103.95 124.87,104.18 125.65,104.41 126.42,104.62 127.20,104.83 127.97,105.04 128.75,105.23 129.52,105.42 130.30,105.60 131.07,105.77 131.85,105.93 132.62,106.08 133.39,106.23 134.17,106.36 134.94,106.49 135.72,106.60 136.49,106.71 137.27,106.81 138.04,106.89 138.82,106.97 139.59,107.04 140.37,107.09 141.14,107.13 141.92,107.17 142.69,107.19 143.46,107.20 144.24,107.20 145.01,107.19 145.79,107.17 146.56,107.14 147.34,107.10 148.11,107.04 148.89,106.98 149.66,106.90 150.44,106.81 151.21,106.71 151.99,106.60 152.76,106.47 153.54,106.34 154.31,106.20 155.08,106.04 155.86,105.87 156.63,105.70 157.41,105.51 158.18,105.31 158.96,105.10 159.73,104.88 160.51,104.65 161.28,104.41 162.06,104.16 162.83,103.90 163.61,103.64 164.38,103.36 165.15,103.07 165.93,102.78 166.70,102.48 167.48,102.17 168.25,101.85 169.03,101.52 169.80,101.19 170.58,100.85 171.35,100.50 172.13,100.14 172.90,99.78 173.68,99.42 174.45,99.04 175.23,98.66 176.00,98.28 176.77,97.89 177.55,97.50 178.32,97.10 179.10,96.70 179.87,96.29 180.65,95.88 181.42,95.46 182.20,95.05 182.97,94.63 183.75,94.20 184.52,93.78 185.30,93.35 186.07,92.92 186.84,92.48 187.62,92.05 188.39,91.61 189.17,91.18 189.94,90.74 190.72,90.30 191.49,89.86 192.27,89.42 193.04,88.98 193.82,88.54 194.59,88.09 195.37,87.65 196.14,87.21 196.91,86.77 197.69,86.33 198.46,85.89 199.24,85.45 200.01,85.01 200.79,84.58 201.56,84.14 202.34,83.71 203.11,83.28 203.89,82.84 204.66,82.41 205.44,81.99 206.21,81.56 206.99,81.14 207.76,80.71 208.53,80.29 209.31,79.88 210.08,79.46 210.86,79.05 211.63,78.64 212.41,78.23 213.18,77.82 213.96,77.42 214.73,77.02 215.51,76.62 216.28,76.23 217.06,75.84 217.83,75.45 218.60,75.06 219.38,74.68 220.15,74.30 220.93,73.92 221.70,73.55 222.48,73.18 223.25,72.81 224.03,72.45 224.80,72.09 225.58,71.74 226.35,71.38 227.13,71.04 227.90,70.69 228.68,70.35 229.45,70.01 230.22,69.68 231.00,69.35 231.77,69.03 232.55,68.71 233.32,68.39 234.10,68.08 234.87,67.77 235.65,67.46 236.42,67.16 237.20,66.87 237.97,66.58 238.75,66.29 239.52,66.01 240.29,65.73 241.07,65.45 241.84,65.19 242.62,64.92 243.39,64.66 244.17,64.41 244.94,64.16 245.72,63.91 246.49,63.68 247.27,63.44 248.04,63.21 248.82,62.99 249.59,62.77 250.37,62.55 251.14,62.35 251.91,62.14 252.69,61.94 253.46,61.75 254.24,61.56 255.01,61.38 255.79,61.21 256.56,61.04 257.34,60.87 258.11,60.71 258.89,60.56 259.66,60.41 260.44,60.27 261.21,60.13 261.98,60.00 262.76,59.88 263.53,59.76 264.31,59.65 265.08,59.54 265.86,59.44 266.63,59.35 267.41,59.26 268.18,59.18 268.96,59.10 269.73,59.03 270.51,58.97 271.28,58.91 272.05,58.86 272.83,58.82 273.60,58.78 274.38,58.75 275.15,58.72 275.93,58.70 276.70,58.69 277.48,58.68 278.25,58.68 279.03,58.68 279.80,58.69 280.58,58.71 281.35,58.73 282.13,58.76 282.90,58.80 283.67,58.84 284.45,58.89 285.22,58.94 286.00,59.00 286.77,59.07 287.55,59.14 288.32,59.22 289.10,59.30 289.87,59.30" class="thin"/>
<text x="149.31" y="106.24" class="small">15</text>
<polyline points="16.42,55.98 17.20,56.14 17.97,56.30 18.75,56.47 19.52,56.65 20.30,56.82 21.07,57.00 21.85,57.19 22.62,57.38 23.40,57.57 24.17,57.77 24.95,57.97 25.72,58.17 26.49,58.38 27.27,58.59 28.04,58.81 28.82,59.03 29.59,59.25 30.37,59.47 31.14,59.70 31.92,59.93 32.69,60.16 33.47,60.40 34.24,60.64 35.02,60.88 35.79,61.13 36.56,61.37 37.34,61.62 38.11,61.87 38.89,62.13 39.66,62.38 40.44,62.64 41.21,62.90 41.99,63.16 42.76,63.43 43.54,63.69 44.31,63.96 45.09,64.23 45.86,64.50 46.63,64.77 47.41,65.05 48.18,65.32 48.96,65.60 49.73,65.88 50.51,66.16 51.28,66.44 52.06,66.72 52.83,67.00 53.61,67.28 54.38,67.57 55.16,67.85 55.93,68.14 56.71,68.43 57.48,68.72 58.25,69.00 59.03,69.29 59.80,69.58 60.58,69.87 61.35,70.16 62.13,70.45 62.90,70.75 63.68,71.04 64.45,71.33 65.23,71.62 66.00,71.92 66.78,72.21 67.55,72.50 68.32,72.80 69.10,73.09 69.87,73.38 70.65,73.68 71.42,73.97 72.20,74.27 72.97,74.56 73.75,74.86 74.52,75.15 75.30,75.44 76.07,75.74 76.85,76.03 77.62,76.33 78.40,76.62 79.17,76.91 79.94,77.21 80.72,77.50 81.49,77.79 82.27,78.08 83.04,78.37 83.82,78.67 84.59,78.96 85.37,79.25 86.14,79.54 86.92,79.83 87.69,80.12 88.47,80.40 89.24,80.69 90.01,80.98 90.79,81.27 91.56,81.55 92.34,81.84 93.11,82.12 93.89,82.40 94.66,82.69 95.44,82.97 96.21,83.25 96.99,83.53 97.76,83.80 98.54,84.08 99.31,84.36 100.09,84.63 100.86,84.90 101.63,85.17 102.41,85.44 103.18,85.71 103.96,85.98 104.73,86.24 105.51,86.50 106.28,86.76 107.06,87.02 107.83,87.27 108.61,87.53 109.38,87.78 110.16,88.03 110.93,88.27 111.70,88.52 112.48,88.76 113.25,88.99 114.03,89.23 114.80,89.46 115.58,89.68 116.35,89.91 117.13,90.13 117.90,90.34 118.68,90.56 119.45,90.77 120.23,90.97 121.00,91.17 121.77,91.36 122.55,91.56 123.32,91.74 124.10,91.92 124.87,92.10 125.65,92.27 126.42,92.44 127.20,92.60 127.97,92.75 128.75,92.90 129.52,93.04 130.30,93.18 131.07,93.31 131.85,93.44 132.62,93.55 133.39,93.67 134.17,93.77 134.94,93.87 135.72,93.96 136.49,94.04 137.27,94.12 138.04,94.19 138.82,94.25 139.59,94.31 140.37,94.35 141.14,94.39 141.92,94.42 142.69,94.45 143.46,94.46 144.24,94.47 145.01,94.47 145.79,94.46 146.56,94.44 147.34,94.42 148.11,94.38 148.89,94.34 149.66,94.29 150.44,94.23 151.21,94.16 151.99,94.09 152.76,94.00 153.54,93.91 154.31,93.81 155.08,93.70 155.86,93.58 156.63,93.46 157.41,93.32 158.18,93.18 158.96,93.03 159.73,92.87 160.51,92.71 161.28,92.53 162.06,92.35 162.83,92.16 163.61,91.96 164.38,91.76 165.15,91.55 165.93,91.33 166.70,91.10 167.48,90.87 168.25,90.63 169.03,90.39 169.80,90.13 170.58,89.87 171.35,89.61 172.13,89.34 172.90,89.06 173.68,88.78 174.45,88.49 175.23,88.20 176.00,87.90 176.77,87.60 177.55,87.29 178.32,86.98 179.10,86.66 179.87,86.34 180.65,86.02 181.42,85.69 182.20,85.36 182.97,85.02 183.75,84.68 184.52,84.34 185.30,84.00 186.07,83.65 186.84,83.30 187.62,82.95 188.39,82.59 189.17,82.23 189.94,81.87 190.72,81.51 191.49,81.15 192.27,80.78 193.04,80.42 193.82,80.05 194.59,79.68 195.37,79.31 196.14,78.94 196.91,78.57 197.69,78.20 198.46,77.83 199.24,77.46 200.01,77.09 200.79,76.71 201.56,76.34 202.34,75.97 203.11,75.60 203.89,75.23 204.66,74.86 205.44,74.49 206.21,74.12 206.99,73.75 207.76,73.38 208.53,73.02 209.31,72.65 210.08,72.29 210.86,71.92 211.63,71.56 212.41,71.20 213.18,70.84 213.96,70.49 214.73,70.13 215.51,69.78 216.28,69.43 217.06,69.08 217.83,68.73 218.60,68.39 219.38,68.04 220.15,67.70 220.93,67.36 221.70,67.03 222.48,66.70 223.25,66.36 224.03,66.04 224.80,65.71 225.58,65.39 226.35,65.07 227.13,64.75 227.90,64.44 228.68,64.13 229.45,63.82 230.22,63.52 231.00,63.22 231.77,62.92 232.55,62.63 233.32,62.34 234.10,62.05 234.87,61.77 235.65,61.49 236.42,61.21 237.20,60.94 237.97,60.67 238.75,60.41 239.52,60.15 240.29,59.89 241.07,59.64 241.84,59.39 242.62,59.15 243.39,58.91 244.17,58.68 244.94,58.45 245.72,58.22 246.49,58.00 247.27,57.79 248.04,57.58 248.82,57.37 249.59,57.17 250.37,56.97 251.14,56.78 251.91,56.60 252.69,56.42 253.46,56.24 254.24,56.07" class="thin"/>
<text x="149.31" y="93.58" class="small">16</text>
<polyline points="39.66,56.19 40.44,56.43 41.21,56.68 41.99,56.92 42.76,57.16 43.54,57.41 44.31,57.66 45.09,57.91 45.86,58.15 46.63,58.40 47.41,58.66 48.18,58.91 48.96,59.16 49.73,59.41 50.51,59.67 51.28,59.92 52.06,60.17 52.83,60.43 53.61,60.68 54.38,60.94 55.16,61.20 55.93,61.45 56.71,61.71 57.48,61.97 58.25,62.22 59.03,62.48 59.80,62.74 60.58,62.99 61.35,63.25 62.13,63.51 62.90,63.76 63.68,64.02 64.45,64.28 65.23,64.53 66.00,64.79 66.78,65.05 67.55,65.30 68.32,65.56 69.10,65.81 69.87,66.07 70.65,66.32 71.42,66.58 72.20,66.83 72.97,67.08 73.75,67.34 74.52,67.59 75.30,67.84 76.07,68.09 76.85,68.35 77.62,68.60 78.40,68.85 79.17,69.10 79.94,69.35 80.72,69.60 81.49,69.85 82.27,70.09 83.04,70.34 83.82,70.59 84.59,70.84 85.37,71.08 86.14,71.33 86.92,71.57 87.69,71.81 88.47,72.06 89.24,72.30 90.01,72.54 90.79,72.78 91.56,73.02 92.34,73.26 93.11,73.50 93.89,73.73 94.66,73.97 95.44,74.20 96.21,74.44 96.99,74.67 97.76,74.90 98.54,75.13 99.31,75.36 100.09,75.59 100.86,75.81 101.63,76.04 102.41,76.26 103.18,76.48 103.96,76.70 104.73,76.92 105.51,77.14 106.28,77.35 107.06,77.57 107.83,77.78 108.61,77.98 109.38,78.19 110.16,78.40 110.93,78.60 111.70,78.80 112.48,78.99 113.25,79.19 114.03,79.38 114.80,79.57 115.58,79.75 116.35,79.94 117.13,80.12 117.90,80.29 118.68,80.47 119.45,80.64 120.23,80.80 121.00,80.97 121.77,81.13 122.55,81.28 123.32,81.43 124.10,81.58 124.87,81.72 125.65,81.86 126.42,82.00 127.20,82.13 127.97,82.25 128.75,82.38 129.52,82.49 130.30,82.60 131.07,82.71 131.85,82.81 132.62,82.91 133.39,83.00 134.17,83.08 134.94,83.16 135.72,83.24 136.49,83.31 137.27,83.37 138.04,83.43 138.82,83.48 139.59,83.52 140.37,83.56 141.14,83.60 141.92,83.62 142.69,83.64 143.46,83.66 144.24,83.67 145.01,83.67 145.79,83.66 146.56,83.65 147.34,83.63 148.11,83.61 148.89,83.58 149.66,83.54 150.44,83.49 151.21,83.44 151.99,83.38 152.76,83.32 153.54,83.24 154.31,83.17 155.08,83.08 155.86,82.99 156.63,82.89 157.41,82.78 158.18,82.67 158.96,82.55 159.73,82.43 160.51,82.30 161.28,82.16 162.06,82.01 162.83,81.86 163.61,81.70 164.38,81.54 165.15,81.37 165.93,81.20 166.70,81.01 167.48,80.83 168.25,80.63 169.03,80.44 169.80,80.23 170.58,80.02 171.35,79.81 172.13,79.59 172.90,79.36 173.68,79.13 174.45,78.89 175.23,78.65 176.00,78.41 176.77,78.16 177.55,77.90 178.32,77.65 179.10,77.38 179.87,77.12 180.65,76.85 181.42,76.57 182.20,76.29 182.97,76.01 183.75,75.73 184.52,75.44 185.30,75.15 186.07,74.85 186.84,74.56 187.62,74.25 188.39,73.95 189.17,73.65 189.94,73.34 190.72,73.03 191.49,72.72 192.27,72.40 193.04,72.09 193.82,71.77 194.59,71.45 195.37,71.13 196.14,70.81 196.91,70.48 197.69,70.16 198.46,69.83 199.24,69.50 200.01,69.18 200.79,68.85 201.56,68.52 202.34,68.19 203.11,67.86 203.89,67.53 204.66,67.19 205.44,66.86 206.21,66.53 206.99,66.20 207.76,65.87 208.53,65.54 209.31,65.21 210.08,64.88 210.86,64.55 211.63,64.22 212.41,63.89 213.18,63.57 213.96,63.24 214.73,62.91 215.51,62.59 216.28,62.27 217.06,61.95 217.83,61.63 218.60,61.31 219.38,60.99 220.15,60.67 220.93,60.36 221.70,60.05 222.48,59.74 223.25,59.43 224.03,59.12 224.80,58.82 225.58,58.51 226.35,58.21 227.13,57.92 227.90,57.62 228.68,57.33 229.45,57.04 230.22,56.75 231.00,56.47 231.77,56.19" class="thin"/>
<text x="149.31" y="82.81" class="small">17</text>
<polyline points="61.35,56.07 62.13,56.31 62.90,56.55 63.68,56.79 64.45,57.03 65.23,57.27 66.00,57.51 66.78,57.75 67.55,57.98 68.32,58.22 69.10,58.46 69.87,58.70 70.65,58.93 71.42,59.17 72.20,59.40 72.97,59.64 73.75,59.87 74.52,60.11 75.30,60.34 76.07,60.57 76.85,60.80 77.62,61.03 78.40,61.26 79.17,61.49 79.94,61.72 80.72,61.95 81.49,62.18 82.27,62.41 83.04,62.63 83.82,62.86 84.59,63.09 85.37,63.31 86.14,63.53 86.92,63.76 87.69,63.98 88.47,64.20 89.24,64.42 90.01,64.64 90.79,64.86 91.56,65.08 92.34,65.29 93.11,65.51 93.89,65.73 94.66,65.94 95.44,66.15 96.21,66.36 96.99,66.57 97.76,66.78 98.54,66.99 99.31,67.20 100.09,67.40 100.86,67.61 101.63,67.81 102.41,68.01 103.18,68.21 103.96,68.41 104.73,68.60 105.51,68.80 106.28,68.99 107.06,69.18 107.83,69.37 108.61,69.55 109.38,69.74 110.16,69.92 110.93,70.10 111.70,70.28 112.48,70.45 113.25,70.63 114.03,70.80 114.80,70.96 115.58,71.13 116.35,71.29 117.13,71.45 117.90,71.61 118.68,71.76 119.45,71.91 120.23,72.06 121.00,72.20 121.77,72.34 122.55,72.48 123.32,72.61 124.10,72.74 124.87,72.86 125.65,72.99 126.42,73.10 127.20,73.22 127.97,73.33 128.75,73.43 129.52,73.53 130.30,73.63 131.07,73.72 131.85,73.81 132.62,73.90 133.39,73.97 134.17,74.05 134.94,74.12 135.72,74.18 136.49,74.24 137.27,74.29 138.04,74.34 138.82,74.39 139.59,74.43 140.37,74.46 141.14,74.49 141.92,74.51 142.69,74.53 143.46,74.54 144.24,74.55 145.01,74.55 145.79,74.54 146.56,74.53 147.34,74.51 148.11,74.49 148.89,74.46 149.66,74.43 150.44,74.39 151.21,74.34 151.99,74.29 152.76,74.23 153.54,74.17 154.31,74.10 155.08,74.03 155.86,73.95 156.63,73.86 157.41,73.77 158.18,73.67 158.96,73.57 159.73,73.46 160.51,73.34 161.28,73.22 162.06,73.10 162.83,72.97 163.61,72.83 164.38,72.69 165.15,72.54 165.93,72.38 166.70,72.22 167.48,72.06 168.25,71.89 169.03,71.72 169.80,71.54 170.58,71.35 171.35,71.16 172.13,70.97 172.90,70.77 173.68,70.57 174.45,70.36 175.23,70.15 176.00,69.93 176.77,69.71 177.55,69.48 178.32,69.25 179.10,69.02 179.87,68.78 180.65,68.54 181.42,68.29 182.20,68.05 182.97,67.79 183.75,67.54 184.52,67.28 185.30,67.01 186.07,66.75 186.84,66.48 187.62,66.21 188.39,65.93 189.17,65.66 189.94,65.38 190.72,65.09 191.49,64.81 192.27,64.52 193.04,64.23 193.82,63.94 194.59,63.65 195.37,63.35 196.14,63.05 196.91,62.75 197.69,62.45 198.46,62.15 199.24,61.85 200.01,61.54 200.79,61.23 201.56,60.93 202.34,60.62 203.11,60.31 203.89,60.00 204.66,59.68 205.44,59.37 206.21,59.06 206.99,58.75 207.76,58.43 208.53,58.12 209.31,57.80 210.08,57.49 210.86,57.17 211.63,56.86 212.41,56.54 213.18,56.23" class="thin"/>
<text x="149.31" y="73.69" class="small">18</text>
<polyline points="86.14,56.18 86.92,56.40 87.69,56.62 88.47,56.83 89.24,57.05 90.01,57.27 90.79,57.48 91.56,57.70 92.34,57.91 93.11,58.12 93.89,58.34 94.66,58.55 95.44,58.75 96.21,58.96 96.99,59.17 97.76,59.37 98.54,59.57 99.31,59.78 100.09,59.98 100.86,60.17 101.63,60.37 102.41,60.57 103.18,60.76 103.96,60.95 104.73,61.14 105.51,61.33 106.28,61.52 107.06,61.70 107.83,61.88 108.61,62.06 109.38,62.24 110.16,62.41 110.93,62.59 111.70,62.76 112.48,62.93 113.25,63.09 114.03,63.25 114.80,63.41 115.58,63.57 116.35,63.72 117.13,63.88 117.90,64.02 118.68,64.17 119.45,64.31 120.23,64.45 121.00,64.59 121.77,64.72 122.55,64.85 123.32,64.97 124.10,65.09 124.87,65.21 125.65,65.32 126.42,65.43 127.20,65.54 127.97,65.64 128.75,65.74 129.52,65.83 130.30,65.92 131.07,66.01 131.85,66.09 132.62,66.17 133.39,66.24 134.17,66.31 134.94,66.37 135.72,66.43 136.49,66.48 137.27,66.53 138.04,66.57 138.82,66.61 139.59,66.65 140.37,66.67 141.14,66.70 141.92,66.72 142.69,66.73 143.46,66.74 144.24,66.74 145.01,66.74 145.79,66.73 146.56,66.72 147.34,66.70 148.11,66.68 148.89,66.65 149.66,66.62 150.44,66.58 151.21,66.53 151.99,66.48 152.76,66.43 153.54,66.37 154.31,66.30 155.08,66.23 155.86,66.15 156.63,66.07 157.41,65.98 158.18,65.89 158.96,65.79 159.73,65.68 160.51,65.58 161.28,65.46 162.06,65.34 162.83,65.22 163.61,65.09 164.38,64.95 165.15,64.81 165.93,64.66 166.70,64.51 167.48,64.36 168.25,64.20 169.03,64.03 169.80,63.86 170.58,63.69 171.35,63.51 172.13,63.32 172.90,63.14 173.68,62.94 174.45,62.75 175.23,62.54 176.00,62.34 176.77,62.13 177.55,61.91 178.32,61.69 179.10,61.47 179.87,61.24 180.65,61.01 181.42,60.78 182.20,60.54 182.97,60.30 183.75,60.05 184.52,59.80 185.30,59.55 186.07,59.30 186.84,59.04 187.62,58.77 188.39,58.51 189.17,58.24 189.94,57.97 190.72,57.70 191.49,57.42 192.27,57.14 193.04,56.86 193.82,56.57 194.59,56.29 195.37,56.00" class="thin"/>
<text x="149.31" y="65.88" class="small">19</text>
<polyline points="111.70,56.10 112.48,56.27 113.25,56.44 114.03,56.60 114.80,56.77 115.58,56.92 116.35,57.08 117.13,57.23 117.90,57.38 118.68,57.53 119.45,57.67 120.23,57.81 121.00,57.94 121.77,58.07 122.55,58.20 123.32,58.33 124.10,58.45 124.87,58.56 125.65,58.67 126.42,58.78 127.20,58.89 127.97,58.99 128.75,59.08 129.52,59.17 130.30,59.26 131.07,59.34 131.85,59.42 132.62,59.49 133.39,59.56 134.17,59.63 134.94,59.69 135.72,59.74 136.49,59.79 137.27,59.83 138.04,59.87 138.82,59.91 139.59,59.94 140.37,59.97 141.14,59.99 141.92,60.00 142.69,60.01 143.46,60.02 144.24,60.02 145.01,60.01 145.79,60.00 146.56,59.98 147.34,59.96 148.11,59.94 148.89,59.90 149.66,59.87 150.44,59.82 151.21,59.78 151.99,59.72 152.76,59.66 153.54,59.60 154.31,59.53 155.08,59.46 155.86,59.38 156.63,59.29 157.41,59.20 158.18,59.11 158.96,59.01 159.73,58.90 160.51,58.79 161.28,58.67 162.06,58.55 162.83,58.42 163.61,58.29 164.38,58.16 165.15,58.01 165.93,57.87 166.70,57.71 167.48,57.56 168.25,57.40 169.03,57.23 169.80,57.06 170.58,56.88 171.35,56.70 172.13,56.52 172.90,56.33 173.68,56.13" class="thin"/>
<text x="149.31" y="59.14" class="small">20</text>
<text x="7.13" y="161.00" class="label">Horizontal gnomon length: 48.56 mm (NOAA declination) — Time scale: EET (UTC+2)</text>
<text x="7.13" y="167.00" class="small">Mount gnomon at the TOP border line</text>
</svg>